<svg width="33" height="31" viewBox="0 0 33 31" fill="none" xmlns="http://www.w3.org/2000/svg">
<g clip-path="url(#clip0_349_111)">
<path d="M9.0415 4.52051H21.9585C23.0225 4.52051 23.8958 5.39401 23.896 6.45801V24.542C23.8958 25.606 23.0225 26.4795 21.9585 26.4795H9.0415C7.97761 26.4793 7.10418 25.6059 7.104 24.542V6.45801C7.10418 5.39411 7.97761 4.52069 9.0415 4.52051ZM8.396 25.1875H22.604V5.8125H8.396V25.1875Z" fill="white" stroke="white" stroke-width="1.29167"/>
<path d="M25 7H28C29.1046 7 30 7.89543 30 9V23C30 24.1046 29.1046 25 28 25H25" stroke="white" stroke-width="2.3"/>
<path d="M6 7H3C1.89543 7 1 7.89543 1 9V23C1 24.1046 1.89543 25 3 25H6" stroke="white" stroke-width="2.3"/>
<path d="M11.1948 13.2036C11.1948 14.0777 11.7592 14.8124 12.5317 15.0923L12.9165 15.2319V12.3423H11.1948V13.2036ZM18.0835 15.2319L18.4683 15.0923C19.241 14.8125 19.8062 14.0778 19.8062 13.2036V12.3423H18.0835V15.2319ZM15.2134 17.5044L14.9829 17.4575C14.1417 17.2872 13.444 16.7029 13.1187 15.9282L13.0542 15.7759L12.8892 15.7554L12.6528 15.7144C11.4903 15.4589 10.6206 14.4359 10.6206 13.2036V12.6294C10.6208 12.1566 11.0091 11.769 11.4819 11.769H12.9165V10.6206H18.0835V11.769H19.519C19.9917 11.7692 20.3792 12.1567 20.3794 12.6294V13.2036C20.3794 14.5181 19.3899 15.5948 18.1108 15.7554L17.9458 15.7759L17.8823 15.9282C17.5569 16.703 16.8584 17.2872 16.0171 17.4575L15.7876 17.5044V19.8062H18.0835V20.3794H12.9165V19.8062H15.2134V17.5044Z" fill="white" stroke="white" stroke-width="0.574074"/>
</g>
<defs>
<clipPath id="clip0_349_111">
<rect width="33" height="31" fill="white"/>
</clipPath>
</defs>
</svg>
