<svg width="380" height="73" viewBox="0 0 380 73" fill="none" xmlns="http://www.w3.org/2000/svg">
<rect width="380" height="73" rx="36.5" fill="#4DD0E2"/>
<rect x="15" y="4" width="351" height="65" rx="32.5" fill="#2F4FFC"/>
<rect x="33" y="8" width="315" height="58" rx="29" fill="#D50100"/>
<rect x="49" y="11" width="282" height="51" rx="25.5" fill="#B189FC"/>
<rect x="68" y="14" width="244" height="46" rx="23" fill="#6300E7"/>
<rect x="89" y="16.4043" width="203" height="41.0112" rx="20.5056" fill="#B1E902"/>
<rect x="104" y="18.8652" width="169" height="36.0899" rx="18.0449" fill="#004D3D"/>
<path d="M146 27C140.48 27 136 31.48 136 37C136 42.52 140.48 47 146 47C151.52 47 156 42.52 156 37C156 31.48 151.52 27 146 27ZM147 30.3L148.35 29.35C150.17 29.91 151.72 31.11 152.73 32.69L152.34 34.03L150.99 34.49L147 31.7V30.3ZM143.65 29.35L145 30.3V31.7L141.01 34.49L139.66 34.03L139.27 32.69C140.28 31.12 141.83 29.92 143.65 29.35ZM141.08 42.11L139.94 42.21C138.73 40.81 138 38.99 138 37C138 36.88 138.01 36.77 138.02 36.65L139.02 35.92L140.4 36.4L141.86 40.74L141.08 42.11ZM148.5 44.59C147.71 44.85 146.87 45 146 45C145.13 45 144.29 44.85 143.5 44.59L142.81 43.1L143.45 42H148.56L149.2 43.11L148.5 44.59ZM148.27 40H143.73L142.38 35.98L146 33.44L149.63 35.98L148.27 40ZM152.06 42.21L150.92 42.11L150.13 40.74L151.59 36.4L152.98 35.93L153.98 36.66C153.99 36.77 154 36.88 154 37C154 38.99 153.27 40.81 152.06 42.21Z" fill="white"/>
<path d="M198 30H196V28H186V30H184C182.9 30 182 30.9 182 32V33C182 35.55 183.92 37.63 186.39 37.94C187.02 39.44 188.37 40.57 190 40.9V44H186V46H196V44H192V40.9C193.63 40.57 194.98 39.44 195.61 37.94C198.08 37.63 200 35.55 200 33V32C200 30.9 199.1 30 198 30ZM184 33V32H186V35.82C184.84 35.4 184 34.3 184 33ZM198 33C198 34.3 197.16 35.4 196 35.82V32H198V33Z" fill="white"/>
<path d="M237.151 38.1481C236.046 38.3756 235.387 39.0906 235.387 40.1062C235.387 41.195 236.289 42.0725 237.411 42.0725C239.076 42.0725 240.425 40.7237 240.425 39.0581C240.425 38.1887 240.303 37.3356 240.051 36.5231C239.409 37.3925 238.264 37.9206 237.151 38.1481ZM238.719 28C238.719 28 239.32 30.1531 239.32 31.9C239.32 33.5737 238.223 34.9306 236.549 34.9306C234.868 34.9306 233.6 33.5737 233.6 31.9L233.624 31.6075C231.983 33.5575 231 36.0844 231 38.8306C231 42.4219 233.909 45.3306 237.5 45.3306C241.091 45.3306 244 42.4219 244 38.8306C244 34.4512 241.896 30.5431 238.719 28ZM237.5 43.7056C234.811 43.7056 232.625 41.52 232.625 38.8306C232.625 37.5875 232.869 36.3606 233.324 35.2312C234.144 36.0519 235.282 36.5556 236.549 36.5556C238.711 36.5556 240.409 35.0687 240.839 32.9562C241.839 34.7437 242.375 36.7506 242.375 38.8306C242.375 41.52 240.189 43.7056 237.5 43.7056Z" fill="white"/>
</svg>
